<svg width="321" height="321" viewBox="0 0 321 321" fill="none" xmlns="http://www.w3.org/2000/svg">
<style>
  .sq-bg { fill: url(#sq-grad-light); }
  .sq-mark { fill: #000; }
  @media (prefers-color-scheme: dark) {
    .sq-bg { fill: url(#sq-grad-dark); }
    .sq-mark { fill: #fff; }
  }
</style>
<rect x="0.381042" width="320.51" height="320.51" class="sq-bg"/>
<path d="M161.192 261.317H80.1997C77.4883 261.317 76.1326 258.045 78.0367 256.127L130.209 203.663C130.788 203.084 131.565 202.765 132.372 202.765H161.817C184.575 202.765 203.829 184.972 204.514 162.248C205.215 138.626 186.189 119.205 162.716 119.205H131.169V158.053C131.169 159.727 129.798 161.097 128.122 161.097H75.6147C73.9391 161.097 72.5681 159.727 72.5681 158.053V63.6813C72.5681 62.007 73.9391 60.6372 75.6147 60.6372H162.716C218.605 60.6372 263.983 106.496 263.13 162.537C262.292 217.589 216.305 261.317 161.192 261.317Z" class="sq-mark"/>
<defs>
<linearGradient id="sq-grad-light" x1="214.555" y1="149.85" x2="462.409" y2="-132.779" gradientUnits="userSpaceOnUse">
<stop stop-color="#ffffff"/>
<stop offset="1" stop-color="#d1d1d5"/>
</linearGradient>
<linearGradient id="sq-grad-dark" x1="214.555" y1="149.85" x2="462.409" y2="-132.779" gradientUnits="userSpaceOnUse">
<stop/>
<stop offset="1" stop-color="#404043"/>
</linearGradient>
</defs>
</svg>
